<?xml version="1.0" encoding="UTF-8"?>
<!DOCTYPE svg PUBLIC "-//W3C//DTD SVG 1.1//EN" "http://www.w3.org/Graphics/SVG/1.1/DTD/svg11.dtd">
<!-- Creator: CorelDRAW -->
<svg xmlns="http://www.w3.org/2000/svg" xml:space="preserve" width="39.9946mm" height="42.3334mm" version="1.1" style="shape-rendering:geometricPrecision; text-rendering:geometricPrecision; image-rendering:optimizeQuality; fill-rule:evenodd; clip-rule:evenodd"
viewBox="0 0 4643.81 4915.37"
 xmlns:xlink="http://www.w3.org/1999/xlink"
 xmlns:xodm="http://www.corel.com/coreldraw/odm/2003">
 <defs>
  <style type="text/css">
   <![CDATA[
    .fil4 {fill:#020000}
    .fil6 {fill:#1B0201}
    .fil12 {fill:#451C0D}
    .fil5 {fill:#502D31}
    .fil9 {fill:#570101}
    .fil10 {fill:#946630}
    .fil8 {fill:#95170D}
    .fil11 {fill:#9AC4D8}
    .fil3 {fill:#A5A5A5}
    .fil0 {fill:silver}
    .fil7 {fill:#F48A9D}
    .fil14 {fill:#FCD766}
    .fil1 {fill:#FEC6D1}
    .fil13 {fill:#FEFEFD}
    .fil2 {fill:#FFE9DE}
   ]]>
  </style>
 </defs>
 <g id="Layer_x0020_1">
  <metadata id="CorelCorpID_0Corel-Layer"/>
  <g id="_2500411091792">
   <path class="fil0" d="M3315.65 4094.58c3.67,71.74 21.12,419.82 33.06,463.8 6.18,38.34 2.55,31.12 -0.87,70.44 33.59,-32.96 54.15,-53.29 83.8,-90.13l563.33 -626.35c132.16,-130.87 535.49,-611.53 648.84,-714.46l0 -3197.89 -1319.84 0 0 3853.65c0.01,42.62 0.08,85.2 -0.34,127.83 -0.21,22.47 0.59,47.87 -0.2,69.79 -0.37,10.02 -0.51,15.54 -2.01,25.44 -3.37,22.41 -0.93,10.46 -5.77,17.87z"/>
   <path class="fil1" d="M1129.34 1174.94c-217.48,431.7 -360.94,827.08 -375.37,1342.02l603.81 -100.4 4.85 -139.82c-26.82,-23.76 -448.26,-371.25 -448.63,-399.06 16.2,-43.5 63.12,-54.65 102.6,-77.47 36.27,-20.97 75.89,-42.55 113.09,-63.9 77.76,-44.59 150.25,-86.28 225.97,-128.67 274.14,-153.49 106.6,-71.92 281.22,-338.24 21.02,-32.05 26.24,-34.26 32.2,-67.04 32.08,-12.99 168.34,-220.58 278.61,-254.06 -5.1,6.84 -126.72,109.14 -166.6,160.71 -144.38,186.75 -143.98,255.2 -211.76,364.73 13.89,46.35 34.55,10.53 19.43,90.65l-106.97 719.56c-9.23,61.54 -11.98,69 -70.28,45.46 -2.29,105.31 9.87,222.45 7.98,328.86l242.38 -129.86c2.01,-210.75 22.99,-557.56 108.53,-710.81 -9.92,91.84 -47.97,217.93 -63.01,329.44 -17.41,129 -14.06,239.51 -22.49,370.71l59.1 -19.83c-10.38,-207.51 54.84,-492.18 106.79,-680.26 38.85,-140.67 91.18,-308.47 158.8,-430.41 35.22,-63.5 21.86,-66.33 34.98,-109.96l23.23 -42.66c1.67,239.14 40.51,461.76 99.8,670.67 22.22,-13.16 77.35,-49.1 96.66,-66.94 -5.32,-45.36 -14,-89.03 -19.89,-136.09 -3.48,-27.83 -13,-89.49 -6.26,-117.82l9.97 -22.54c35.47,61.13 76.54,175.55 124.83,225.03 207.06,-59.05 200.8,61.03 73.87,127.22 298.8,363.03 115.38,361.1 612.48,218.44 -175.75,-253.61 -332.18,-493.03 -466.02,-780.38l-52.11 -105.67c-8.03,-12.55 -6.07,-10.04 -14.24,-18.23l4.12 30.22 -264.16 28.28c7.26,-135.66 24.39,-231.32 46.61,-360.86 1.88,-11.02 9.58,-54.94 10.81,-57.54 15.13,-31.9 -15.59,-16.34 38.8,-27.8 29.75,12.45 14.97,0.66 28.61,30.61 10.3,22.61 38.71,211.67 93.92,253.31l268.59 489.76c51.48,91.05 104.36,176.44 154.87,258.1l166.58 254.99 167.58 -35.12 3.99 -1973.27c-445.88,-17.14 -971.41,119.06 -1299.11,291.54 -186.15,97.99 -335.17,209.96 -469.77,326.86 -66.3,57.57 -135.98,137.06 -188.51,204.65 -35.5,45.68 -138.91,176.64 -160.5,232.9z"/>
   <path class="fil2" d="M1484.86 3171.25c24.66,178.61 188.53,810.59 301.48,852.21 35.8,-45.05 36.95,-20.88 73.36,-63.35 35.69,-41.64 11.32,-13.23 102.17,-56.19 106.87,-50.54 172.51,-40.82 210.09,-68.05 10.62,-7.7 204.47,-10.87 288.81,18.03 16.59,5.68 33.52,11.94 50.48,19.19 96.44,41.22 -0.63,-24.29 114.66,61.77 75.45,56.31 78.94,49.42 91.29,96.06 29.63,112.02 97.29,63.63 107.22,197.34 3.55,47.97 -14.83,76.25 -2.57,148.87l153.66 -9.31c18.59,-73.25 59.51,-156.54 99.11,-215.7 50.42,-75.31 74.01,-96.88 173.88,-132.66l1.92 -1872.4c-123.97,6.35 -455.61,116.75 -535.36,119.15 -85.43,2.58 -261.13,-258.58 -303.98,-338.46l-86.47 29.43c8.15,49.99 42.58,145.71 62.05,192.58 13.54,32.6 68.63,137.88 71,170.29 -104.13,79.57 -149.78,6.86 -192.2,-59.32 -32.35,-50.46 -85.53,-190.05 -108.83,-214.02 -47.09,21.96 -52.9,42.45 -106.29,53.92 10.71,-93.2 42.65,-99.12 66.5,-145.09 21.36,-41.18 -67.9,-286.27 -75.34,-476.44 -95.54,70.31 -206.4,592.11 -230.6,759.76 -12.81,88.79 -15.76,203.01 -33.32,292.87l-347.36 181.54c-13.29,116.27 38.29,338.99 54.64,457.98z"/>
   <path class="fil1" d="M773.01 3119.91c63.25,398.05 139.17,710.93 294.35,1036.52 72.87,152.89 154.6,298.36 246.32,421.87 93.24,125.55 209.99,225.2 316.87,337.07l478.13 0c-36.37,-45.02 -84.35,-76.81 -132.9,-114.04 -214.24,-164.35 -606.91,-837.45 -637.4,-1086.97l155.16 360.37c55.63,115.27 118.14,225.23 184.17,326.93 55.13,84.9 150.57,237.3 231.56,279.23 102.56,53.12 265.64,113.66 409.72,109.61 -24.06,-27.85 -57.53,-35.99 -100.8,-64.26 -434.5,-283.77 -745.14,-1106.88 -791.99,-1565.37 -18.75,-43.56 -47.11,-292.97 -50.69,-361.66l-15.18 -54.32 -603.29 175.05 15.97 199.97z"/>
   <path class="fil3" d="M3348.71 4558.38c-1.42,2.4 -2.91,3.43 -3.34,7.7l-20.18 171.24c-6.94,58.46 -16.77,121.65 -24.94,178.04l1343.56 0 0 -1717.48c-113.35,102.93 -516.68,583.6 -648.84,714.46l-563.33 626.35c-29.64,36.83 -50.21,57.16 -83.8,90.13 3.43,-39.33 7.05,-32.1 0.87,-70.44z"/>
   <path class="fil4" d="M1205.6 4915.37l-9.09 -416.48c40.88,21.98 145.2,175.29 178.09,215.57 57.64,70.56 140.78,135.29 191.23,200.91l64.71 0c-106.88,-111.87 -223.63,-211.52 -316.87,-337.07 -91.72,-123.51 -173.45,-268.97 -246.32,-421.87 -155.18,-325.59 -231.11,-638.47 -294.35,-1036.52l-63.05 -55.61c-45.5,-24.5 -131.66,-108.77 -174.43,-145.53 -57.89,-49.75 -108.03,-99.07 -158.35,-156.2 -95.71,-108.64 -199.77,-212.18 -259.62,-390.02 1.64,-115.02 6.2,-99.62 63.99,-169.65 39.51,-47.88 77.75,-84.42 114.5,-131.18 20.64,-26.26 39.57,-41.72 60.69,-66.97l645.84 -722.45c20.19,-41.57 30.71,-24.28 66.16,-59.59 11.41,-11.37 17,-21.83 28.25,-32.14l32.36 -15.63c21.58,-56.26 125,-187.22 160.5,-232.9 52.53,-67.59 122.21,-147.08 188.51,-204.65 134.61,-116.9 283.62,-228.88 469.77,-326.86 327.7,-172.48 853.23,-308.68 1299.11,-291.54l-3.99 1973.27 7.19 54.8 -1.92 1872.4c45.53,2.75 18.61,-5.58 41.78,38.85 15.04,28.83 1.86,15.55 25.37,36.26 4.84,-7.41 2.4,4.54 5.77,-17.87 1.5,-9.9 1.64,-15.42 2.01,-25.44 0.79,-21.92 -0.01,-47.33 0.2,-69.79 0.42,-42.62 0.35,-85.2 0.34,-127.83l0 -3853.65c-600.99,0 -1215.09,117.78 -1699.55,480.35 -91.22,68.27 -335.04,260.98 -385.22,342.26 -18.04,29.23 -41.23,59.46 -63.27,84.18 -12.84,14.4 -21.42,20.19 -34.22,34.6l-934.09 1041.89c-168.33,189.07 -257.59,259.54 -178.42,488.22 42.86,123.77 206.42,330.57 301.28,426.2l231.2 211.18c28.49,25.31 45.14,34.48 74.04,63.58 64.33,64.77 30.49,167.32 90.73,351.65 51.67,158.12 69.18,270.56 139.41,450.43 56.23,144.02 112.46,267.24 183.22,396.8 64.01,117.21 45.82,46.29 45.82,249.1 0,98.31 0,196.61 0,294.92l110.69 0z"/>
   <path class="fil5" d="M1669.08 1202.35c-5.96,32.78 -11.18,35 -32.2,67.04 -174.62,266.32 -7.08,184.76 -281.22,338.24 -75.73,42.39 -148.22,84.09 -225.97,128.67 -37.2,21.34 -76.82,42.93 -113.09,63.9 -39.48,22.82 -86.4,33.97 -102.6,77.47 0.37,27.81 421.81,375.3 448.63,399.06l-4.85 139.82 -603.81 100.4c14.43,-514.94 157.9,-910.32 375.37,-1342.02l-32.36 15.63c-11.25,10.31 -16.84,20.77 -28.25,32.14 -35.45,35.31 -45.97,18.02 -66.16,59.59 9.39,10.33 16.56,-18.58 -3.32,27.2 -236,543.49 -257.59,682.38 -306.3,1333.82 -30.98,-13.09 -79.38,-51.15 -113.35,-73.74 -35.19,-23.41 -76.96,-45.64 -117.07,-68.99 -66.61,-38.79 -181.75,-102.33 -264.64,-117.61 22.13,55.7 15.61,12.05 49.46,47.23 13.68,14.21 21.07,42.48 30.03,58.32 19.4,34.39 52.01,71.72 76.28,100.97 55.71,67.14 131.09,122.71 210.14,153.36 -19.76,83.99 48.01,116.75 133.04,122l13.12 199.44 63.05 55.61 -15.97 -199.97 603.29 -175.05 15.18 54.32 -2.98 -48.21 47.07 -27.87 -0.12 -64.88c1.89,-106.42 -10.26,-223.55 -7.98,-328.86 58.3,23.55 61.05,16.08 70.28,-45.46l106.97 -719.56c15.13,-80.12 -5.54,-44.3 -19.43,-90.65 67.79,-109.53 67.38,-177.97 211.76,-364.73 39.87,-51.56 161.5,-153.87 166.6,-160.71 -110.27,33.49 -246.53,241.07 -278.61,254.06z"/>
   <path class="fil6" d="M1713.55 3181.63l274.51 -108.56 84.66 281.95c3.02,-1.03 7.52,-5.52 9.03,-3.16 7.83,12.25 78.85,-86.77 82.31,-95.42 15.05,-37.65 -7.47,-2.54 35.62,-36.66l33.94 -36.59c26.48,-27.46 29.31,-22.4 60.63,-24.16l16.44 69.48 178.33 -63.34c29.23,-9.2 48.42,-6.57 83.09,-6.46 -2.44,-49.88 -7.58,-42.29 -18.88,-78.49 281.68,-4.13 135.92,24.71 271.87,29.6 2.43,-6.63 3.3,-5.65 4.83,-23.07 0.02,-0.22 0.12,-20.48 0.69,-28.48 2.61,-61 -93.49,-299.39 -123.48,-351.56 -221.53,-9.64 -790.75,126.63 -983.19,252.27 -38.75,25.3 -81.38,57.31 -86.53,118.77 -1.83,21.9 3.72,64.8 12.51,84.56 16.72,37.62 27.27,30.4 63.62,19.31z"/>
   <path class="fil7" d="M2195.28 4915.37l687.21 0c4.03,-196.39 38.04,-312.67 70.18,-485.54 -368.12,3.79 -600.34,8.57 -933.68,-153.1l-167.43 -108.11c-24.16,-19.79 -20.85,-24.59 -47.29,-39.05 68.4,147.62 180.6,316.9 263.55,412.67 65.65,75.79 185.5,168.2 282.21,219.75l106.19 49.44c0.94,-1.87 4.09,2.66 5.94,4.23 -186.07,44.97 -229.41,23.67 -397.8,-20.42 34.02,59.94 85.64,75.19 130.91,120.14z"/>
   <path class="fil1" d="M117.55 2372.55c-15.56,-49.05 -3.31,-12.02 13.94,-23 25.49,17.72 38.75,27.55 66.39,33.43 82.89,15.28 198.03,78.82 264.64,117.61 40.12,23.35 81.88,45.59 117.07,68.99 33.96,22.6 82.37,60.66 113.35,73.74 48.71,-651.44 70.31,-790.33 306.3,-1333.82 19.88,-45.78 12.71,-16.87 3.32,-27.2l-645.84 722.45c-21.12,25.25 -40.05,40.71 -60.69,66.97 -36.75,46.76 -74.98,83.3 -114.5,131.18 -57.79,70.03 -62.35,54.63 -63.99,169.65z"/>
   <path class="fil1" d="M1786.34 4023.46c25.22,53.99 122.64,123.59 184.35,163 68.88,43.99 148.46,80.55 233.85,110.34 185.07,64.57 403.06,85.77 617.31,80.34 -12.26,-72.62 6.12,-100.9 2.57,-148.87 -9.93,-133.71 -77.59,-85.32 -107.22,-197.34 -12.34,-46.64 -15.84,-39.74 -91.29,-96.06 -115.29,-86.06 -18.22,-20.55 -114.66,-61.77 -16.96,-7.26 -33.89,-13.52 -50.48,-19.19 -84.34,-28.9 -278.19,-25.73 -288.81,-18.03 -37.59,27.23 -103.22,17.51 -210.09,68.05 -90.85,42.96 -66.47,14.55 -102.17,56.19 -36.41,42.47 -37.56,18.3 -73.36,63.35z"/>
   <path class="fil8" d="M2485.61 1124.53l41.29 103.78c8.16,8.19 6.2,5.68 14.24,18.23l52.11 105.67c133.84,287.35 290.28,526.77 466.02,780.38 -497.11,142.67 -313.68,144.59 -612.48,-218.44 126.93,-66.19 133.19,-186.28 -73.87,-127.22 -48.29,-49.49 -89.36,-163.9 -124.83,-225.03l-9.97 22.54c-6.75,28.33 2.78,89.99 6.26,117.82 5.89,47.06 14.57,90.73 19.89,136.09 -19.31,17.83 -74.44,53.78 -96.66,66.94 -59.29,-208.91 -98.13,-431.53 -99.8,-670.67l-23.23 42.66c-13.12,43.62 0.23,46.46 -34.98,109.96 -67.62,121.94 -119.95,289.74 -158.8,430.41 -51.95,188.08 -117.17,472.75 -106.79,680.26l-59.1 19.83c8.43,-131.19 5.09,-241.71 22.49,-370.71 15.05,-111.51 53.1,-237.6 63.01,-329.44 -85.54,153.24 -106.52,500.05 -108.53,710.81l-242.38 129.86 0.12 64.88 -47.07 27.87 2.98 48.21c3.59,68.69 31.94,318.1 50.69,361.66 47.69,-4.89 25.95,-9.54 58.66,10.38 -16.35,-118.99 -67.94,-341.7 -54.64,-457.98l347.36 -181.54c17.57,-89.86 20.52,-204.08 33.32,-292.87 24.2,-167.65 135.06,-689.45 230.6,-759.76 7.44,190.17 96.71,435.25 75.34,476.44 -23.85,45.97 -55.79,51.89 -66.5,145.09 53.39,-11.47 59.19,-31.97 106.29,-53.92 23.3,23.97 76.48,163.55 108.83,214.02 42.42,66.18 88.07,138.89 192.2,59.32 -2.37,-32.41 -57.46,-137.68 -71,-170.29 -19.47,-46.87 -53.9,-142.6 -62.05,-192.58l86.47 -29.43c42.84,79.88 218.54,341.04 303.98,338.46 79.76,-2.4 411.39,-112.8 535.36,-119.15l-7.19 -54.8 -167.58 35.12 -166.58 -254.99c-50.51,-81.66 -103.39,-167.05 -154.87,-258.1l-268.59 -489.76z"/>
   <path class="fil9" d="M2108.68 4915.37l86.61 0c-45.27,-44.95 -96.89,-60.2 -130.91,-120.14 168.38,44.1 211.73,65.39 397.8,20.42 -1.86,-1.57 -5,-6.1 -5.94,-4.23l-106.19 -49.44c-96.71,-51.55 -216.56,-143.97 -282.21,-219.75 -82.95,-95.77 -195.15,-265.05 -263.55,-412.67 26.44,14.46 23.13,19.26 47.29,39.05l167.43 108.11c333.34,161.67 565.56,156.89 933.68,153.1 -32.14,172.87 -66.15,289.15 -70.18,485.54l54.94 0c6.72,-205.64 91.95,-825.93 310.4,-852.04 29.85,40.22 32.37,114.91 28.81,174.31 -4.32,72.07 -48.62,74.52 -85.97,129 -27.25,39.74 -138.53,239.52 -145.2,279.72 38.42,6.73 43.7,-31.47 61.12,-69.42 34.51,-75.19 99.91,-221.74 170.73,-251.12 59.5,73.32 -22.5,486.7 -32.1,589.56l55.01 0c8.17,-56.4 18,-119.58 24.94,-178.04l20.18 -171.24c0.43,-4.27 1.93,-5.29 3.34,-7.7 -11.94,-43.98 -29.39,-392.06 -33.06,-463.8 -23.51,-20.71 -10.33,-7.43 -25.37,-36.26 -23.16,-44.44 3.75,-36.1 -41.78,-38.85 -99.87,35.77 -123.46,57.35 -173.88,132.66 -39.61,59.16 -80.52,142.44 -99.11,215.7l-153.66 9.31c-214.26,5.43 -432.25,-15.77 -617.31,-80.34 -85.39,-29.79 -164.97,-66.35 -233.85,-110.34 -61.71,-39.41 -159.13,-109 -184.35,-163 -112.95,-41.61 -276.82,-673.59 -301.48,-852.21 -32.71,-19.92 -10.97,-15.27 -58.66,-10.38 46.85,458.49 357.49,1281.6 791.99,1565.37 43.26,28.26 76.74,36.4 100.8,64.26 -144.08,4.05 -307.16,-56.49 -409.72,-109.61 -80.99,-41.94 -176.43,-194.33 -231.56,-279.23 -66.03,-101.7 -128.55,-211.66 -184.17,-326.93l-155.16 -360.37c30.49,249.52 423.17,922.62 637.4,1086.97 48.55,37.24 96.53,69.03 132.9,114.04z"/>
   <path class="fil10" d="M2176.46 3580.27c11.61,37 25.75,50.76 32.48,81.92 26.6,13.7 64.23,68.7 85.32,89.75 100.34,-23.21 192.11,-61.12 291.71,-89.03 42.82,-12.01 281.6,-68.39 306.5,-84.52 28.32,-58.6 8.88,-283.18 -18.82,-337.7l2.96 57.66c-140.9,-27.04 -46,-52.87 -251.54,-49.38 -8.52,182.39 -151.41,210.88 -271.82,115.32 -44.84,31.45 -63.77,77.99 -94.71,109.59 -32.59,33.25 -19.1,-0.01 -45.69,52.49 -14.86,29.35 -11.51,40.87 -36.38,53.9z"/>
   <path class="fil2" d="M2937.44 4915.37l307.79 0c9.6,-102.86 91.6,-516.24 32.1,-589.56 -70.82,29.39 -136.22,175.93 -170.73,251.12 -17.42,37.96 -22.7,76.16 -61.12,69.42 6.66,-40.2 117.95,-239.98 145.2,-279.72 37.35,-54.48 81.65,-56.93 85.97,-129 3.56,-59.39 1.04,-134.08 -28.81,-174.31 -218.45,26.11 -303.68,646.4 -310.4,852.04z"/>
   <path class="fil2" d="M2480.72 825.78c5.27,88.51 125.06,334.65 177.28,396.68 142.29,-3.04 355.47,-132.45 468.63,-173.82 -10.61,-53.55 -166.8,-250.59 -213.26,-300.77 -23.77,-25.68 -19.02,-14.28 -33.52,-46.21 -9.35,0.79 -380.95,113.16 -399.13,124.12z"/>
   <path class="fil11" d="M964.66 1873.68c26.48,48.15 450.27,399.44 464.5,408.83 20.7,-29.67 29.12,-128.19 36.02,-172.98l84.31 -561.06c-52.61,14.94 -505.28,279.75 -584.83,325.21z"/>
   <path class="fil12" d="M2072.72 3355.02c17.32,59.31 72.8,189.2 103.75,225.24 24.87,-13.03 21.52,-24.55 36.38,-53.9 26.59,-52.51 13.1,-19.24 45.69,-52.49 30.94,-31.59 49.87,-78.13 94.71,-109.59 120.41,95.56 263.29,67.07 271.82,-115.32 205.54,-3.48 110.64,22.34 251.54,49.38l-2.96 -57.66c-0.67,-30.5 -17.74,-152.52 -43.01,-182.41 -0.57,8 -0.66,28.26 -0.69,28.48 -1.53,17.42 -2.4,16.44 -4.83,23.07 -135.95,-4.89 9.81,-33.73 -271.87,-29.6 11.3,36.2 16.44,28.61 18.88,78.49 -34.67,-0.12 -53.86,-2.74 -83.09,6.46l-178.33 63.34 -16.44 -69.48c-31.33,1.76 -34.15,-3.3 -60.63,24.16l-33.94 36.59c-43.09,34.11 -20.57,-1 -35.62,36.66 -3.46,8.65 -74.49,107.67 -82.31,95.42 -1.51,-2.36 -6.01,2.12 -9.03,3.16z"/>
   <path class="fil2" d="M1669.08 1202.35c22.26,-45.61 97.48,-140.32 126.26,-177.61 15.63,-20.24 17.17,-27.1 35.67,-43.66l125.09 -110.31 -42.03 -23.01c-5.33,-1.6 -40.64,-6.48 -50.21,-8.39 -276.48,-55.58 -157.41,-217.72 -419.6,40.84 -48.92,48.23 -114.87,115.38 -143.85,191.35 33.74,30.2 309.61,155.98 368.68,130.8z"/>
   <path class="fil13" d="M1713.55 3181.63c4.53,66.5 166.28,244.2 210.64,284.9 36.83,33.79 234.78,231.68 284.75,195.65 -6.72,-31.15 -20.87,-44.91 -32.48,-81.92 -30.94,-36.04 -86.42,-165.93 -103.75,-225.24l-84.66 -281.95 -274.51 108.56z"/>
   <polygon class="fil1" points="748.78,2612.55 750.56,2822.92 1362.65,2653.67 1359.27,2508.05 "/>
   <path class="fil7" d="M117.55 2372.55c59.86,177.84 163.91,281.37 259.62,390.02 50.32,57.14 100.46,106.45 158.35,156.2 42.78,36.76 128.93,121.03 174.43,145.53l-13.12 -199.44c-85.03,-5.25 -152.8,-38 -133.04,-122 -79.05,-30.65 -154.43,-86.22 -210.14,-153.36 -24.28,-29.25 -56.88,-66.58 -76.28,-100.97 -8.95,-15.84 -16.35,-44.11 -30.03,-58.32 -33.86,-35.18 -27.33,8.46 -49.46,-47.23 -27.65,-5.88 -40.91,-15.71 -66.39,-33.43 -17.25,10.98 -29.5,-26.04 -13.94,23z"/>
   <path class="fil1" d="M1205.6 4915.37l360.23 0c-50.45,-65.61 -133.6,-130.35 -191.23,-200.91 -32.89,-40.28 -137.21,-193.59 -178.09,-215.57l9.09 416.48z"/>
   <path class="fil2" d="M2526.9 1228.31l-41.29 -103.78c-55.21,-41.64 -83.62,-230.7 -93.92,-253.31 -13.64,-29.94 1.14,-18.16 -28.61,-30.61 -54.4,11.46 -23.67,-4.1 -38.8,27.8 -1.23,2.6 -8.93,46.53 -10.81,57.54 -22.21,129.54 -39.35,225.2 -46.61,360.86l264.16 -28.28 -4.12 -30.22z"/>
   <path class="fil2" d="M1773.23 1247.01l198.55 15.11c20.24,-36.27 41.41,-139.88 70.46,-198.25 30.07,-60.4 69.46,-130.55 87.81,-199.25 -83.84,10.14 -337.74,267.14 -356.82,382.39z"/>
   <path class="fil14" d="M2604.19 3433.98c-31.71,6.28 -164.89,44.34 -182.04,56.16 -75.92,52.27 -1.25,122.57 79.2,129.41 223.32,18.97 273.23,-219.3 102.84,-185.57z"/>
   <path class="fil13" d="M609.79 2723.88c-12.27,32.13 -40.67,36.57 -11.17,71.83 21.24,25.37 58.43,29.91 95.92,25.31l-1.66 -128.82c-79.68,-37.76 -239.36,-175.52 -402.88,-243.17 39.72,79.45 140.22,180.01 213.81,225.63 34.62,21.47 77.98,29.61 105.99,49.23z"/>
   <path class="fil13" d="M2339.49 2933.5c-45.23,32.01 -74.65,77.32 -39.9,138.25 23.67,41.51 83.1,64.73 136.84,39.62 119.13,-55.7 19.18,-260.05 -96.94,-177.87z"/>
   <path class="fil1" d="M2207.1 2013.72c5.77,90.82 97.41,236.4 142.25,299.22l64.55 -12.01c-33.64,-102.33 -100.59,-199.42 -117.61,-328.69l-89.18 41.47z"/>
  </g>
 </g>
</svg>
