<svg xmlns="http://www.w3.org/2000/svg" xml:space="preserve" viewBox="0 0 28.706 42.358">
  <path d="M9.382 40.292v-2.065l-.343-.564c-.955-1.572-1.964-4.097-2.623-6.566-.338-1.267-.573-2.371-.64-3.005-.052-.49-.073-.525-.566-.974-2.677-2.436-3.51-3.33-4.455-4.784C.07 21.28-.19 19.932.147 19.188c.169-.371 1.712-2.205 3.231-3.839a66.666 66.666 0 0 0 1.274-1.404c.203-.236.965-1.074 1.693-1.862C7.54 10.789 8.142 10.105 9.99 7.94c1.217-1.424 1.406-1.62 2.303-2.387.899-.77 2.212-1.784 2.713-2.097 1.199-.749 3.142-1.645 4.577-2.11C22.136.518 24.36.125 26.93.049L28.603 0l.003 18.448c.001 10.147.026 18.62.054 18.83.097.715.03 2.919-.12 3.98l-.15 1.058-.244.027c-.234.027-.241.017-.19-.255.132-.705.391-3.31.39-3.921 0-.726-.073-.944-.283-.863-.22.085-.706.814-1.21 1.815-.276.552-.528.953-.6.953-.066 0-.108-.03-.093-.066.016-.036.234-.464.485-.952.55-1.069.87-1.56 1.248-1.92.273-.26.285-.297.285-.889-.001-.78-.124-1.253-.327-1.253-.24 0-.824.555-1.14 1.082-.76 1.269-1.08 2.563-1.465 5.924-.037.32-.066.36-.261.36h-.22l.055-.884c.048-.787.375-2.743.52-3.106.049-.125-.133-.143-1.835-.182-1.986-.045-2.774-.147-4.175-.54-1.002-.282-2.47-1.006-3.252-1.605l-.628-.481.324.584c1.111 2.001 2.138 3.287 3.325 4.167.627.465 1.671 1.03 1.904 1.03.257.001.16.153-.17.265-.653.222-2.042.112-2.94-.233-.287-.11-.015.22.474.575l.506.368-.349.026c-.31.023-.401-.018-.83-.379-1.334-1.124-2.273-2.184-3.29-3.711-1.285-1.935-2.46-4.438-3.025-6.452-.309-1.099-.265-1.172.066-.11a25.662 25.662 0 0 0 3.889 7.583c.617.824.7.9 1.27 1.171.948.45 1.962.74 2.769.788l.72.043-.509-.26c-3.688-1.885-6.867-8.58-7.696-16.21-.065-.597-.134-1.1-.154-1.12-.02-.02-1.19.287-2.6.682a208 208 0 0 1-2.597.719c-.078 0-.024 1.08.097 1.965.466 3.412 1.378 6.47 2.752 9.233 1.062 2.134 1.72 3.07 3.426 4.861 1.135 1.192 1.15 1.213.877 1.213-.24 0-.384-.11-1.068-.82a24.984 24.984 0 0 1-1.554-1.82c-.42-.55-.774-1-.788-1-.014 0-.007.818.016 1.82l.042 1.82h-.955zm16.07-2.67c.061-.033.238-.353.393-.71.525-1.207 1.183-2.006 1.779-2.16l.257-.067.022-8.102c.018-6.857.004-8.101-.096-8.101-.139 0-4.398 1.019-4.445 1.063-.086.083-.542-.263-1.032-.783-.407-.432-1.368-1.732-1.573-2.127-.034-.066-.729.196-.764.288-.057.148.406 1.48.806 2.32.392.824.374.88-.313.983-.372.056-.397.046-.677-.271-.242-.275-.86-1.45-1.165-2.218l-.078-.194-.338.255c-.185.14-.402.257-.481.258-.124.002-.131-.033-.053-.26.05-.143.214-.443.363-.664l.271-.403-.243-.965a23.052 23.052 0 0 1-.388-2.002c-.08-.57-.167-1.037-.195-1.037-.094 0-.747 1.399-.96 2.057-.531 1.643-1 4.008-1.176 5.93l-.1 1.087-1.482.762c-.815.419-1.511.79-1.548.825-.167.159.426 4.005.92 5.965.516 2.051 1.312 4.256 1.785 4.945 1.041 1.517 3.273 2.74 5.828 3.192 1.376.243 4.32.327 4.683.133zm-5.789-5.408c-.208-.144-.722-.88-1.075-1.54-.471-.882-.903-2.033-1.214-3.239-.13-.5-.267-.91-.304-.91-.117 0-1.954.689-2.286.857-.394.199-.55.14-.659-.251-.243-.874.085-1.37 1.31-1.982.811-.405 3.27-1.144 4.7-1.412 1.498-.28 3.052-.458 3.15-.36.135.134.922 2.25 1.118 3.002.245.943.436 2.215.514 3.415.047.727.034.877-.083.994-.127.127-.155.121-.365-.079-.25-.237-.793-.543-.966-.544-.06 0-.174-.115-.254-.254-.27-.475-.485-.488-1.733-.109-.794.242-.99.409-.975.83.006.163-.016.296-.05.296-.1.001-.441.549-.597.96-.083.22-.183.36-.231.326zm.506-1.736c.056-.22.048-.34-.031-.435-.168-.202-.329-.157-.513.144-.203.334-.212.516-.031.696.12.12.16.122.317.018.1-.065.216-.255.258-.423zm1.002-3.873c.636-.686-.2-1.825-1.026-1.398a.899.899 0 0 0-.096 1.554c.382.256.794.199 1.122-.156zm-15.149-1.08c-.051-.837-.058-.862-.254-.862-.536 0-1.114-.483-1.018-.85.035-.131-.017-.197-.223-.285-.803-.342-2.342-1.952-2.342-2.45 0-.066-.114-.168-.254-.225-.288-.12-.336-.254-.09-.254.26 0 2.303 1.057 3.194 1.653.447.3.84.527.873.507.033-.02.066-.41.074-.866.016-.893.284-3.228.488-4.258.217-1.091.688-2.808 1.035-3.773.358-.997.989-2.467 1.134-2.642.05-.06.07-.127.047-.15-.023-.024-.82.823-1.769 1.881-.95 1.059-2.295 2.555-2.99 3.326-1.7 1.882-2.844 3.222-2.951 3.454-.11.236.027.898.31 1.503.461.987 2.01 2.759 3.819 4.368.51.455.938.818.95.807.01-.01-.004-.408-.033-.883zm-.13-1.187c.114-.073.107-.902-.01-1.09-.182-.296-3.3-2.228-3.412-2.116-.08.08.494.815 1.046 1.342.48.458 1.233.919 1.502.919.158 0 .166.114.025.34-.141.226-.007.434.367.565.354.124.349.123.481.04zm2.848-.612 2.563-.724.439-.126-.049-.61c-.027-.335-.062-.625-.079-.644-.016-.019-1.192.169-2.613.417l-2.583.451v.917c0 .644.03.917.1.917.054 0 1.054-.27 2.222-.598zm5.192-1.71.36-.181v-.578c0-.627.205-2.76.345-3.58.093-.552.425-1.755.471-1.71.016.016-.066.447-.18.957-.269 1.19-.466 2.885-.466 3.994v.87l.241-.125c.235-.121.243-.148.302-.997.176-2.57 1.094-6.215 2.077-8.242.227-.468.44-1.03.472-1.25.103-.685.182-.513.237.516.03.546.111 1.372.183 1.835.13.852.526 2.627.627 2.816.039.072.175.024.464-.164.39-.253.407-.28.358-.568-.11-.657-.235-1.856-.207-1.996.018-.089.195.173.445.657.616 1.194.62 1.2 1.064 1.08.578-.156 1.103.023 1.103.374 0 .11-.622.726-.733.726-.079 0 0 .177.23.515.478.704 1.687 2.2 1.82 2.25.115.044 2.999-.708 3.109-.811.036-.034-.068-.236-.231-.45-.386-.505-1.742-2.65-2.414-3.819-.555-.965-2.148-4.181-2.25-4.543-.033-.117.413.722.991 1.863 1.602 3.16 3.984 6.998 4.287 6.908.079-.024.4-.107.715-.184l.572-.141V1.041h-.36c-.654 0-2.63.168-3.577.303-3.039.434-5.35 1.174-7.663 2.455-5.041 2.792-8.091 7.281-9.399 13.836-.288 1.444-.573 4.016-.453 4.082.04.022.873-.104 1.851-.281.978-.178 2.13-.386 2.561-.463l.784-.14v-1.215l-1.909-1.645c-1.418-1.223-1.902-1.687-1.884-1.809.018-.117.752-.578 2.562-1.611l2.538-1.447.553-1.109c.771-1.546 1.63-2.685 2.575-3.414.623-.48.675-.434.075.065-.828.69-1.984 2.341-2.518 3.598-.22.516-.226.563-.095.694.077.078.122.204.1.28a173.51 173.51 0 0 0-.514 3.357 264.37 264.37 0 0 1-.514 3.408c-.043.2-.277.256-.43.103-.075-.075-.107 1.708-.046 2.644l.015.228.698-.38c.384-.21.86-.463 1.058-.563zm6.596-2.097.25-.087-.27-.57a13.882 13.882 0 0 1-.543-1.43l-.273-.863-.372.18c-.204.1-.371.235-.371.301 0 .246.77 1.935 1.022 2.24.143.174.27.316.284.316.013 0 .136-.04.273-.087zm-7.72-3.334c.257-1.714.468-3.148.468-3.187 0-.039-.543.235-1.206.608-3.032 1.706-3.788 2.152-3.764 2.222.027.083 3.982 3.524 4.013 3.493.011-.01.23-1.422.489-3.136zm7.156-.895c.107-.067.084-.16-.15-.612l-.277-.533.051.547c.066.71.104.77.376.598zm-8.882 14.934c.004-.098.024-.118.05-.05.025.06.022.133-.006.162-.028.028-.048-.022-.044-.112z"/>
</svg>