<?xml version="1.0" standalone="no"?>
<!DOCTYPE svg PUBLIC "-//W3C//DTD SVG 20010904//EN"
 "http://www.w3.org/TR/2001/REC-SVG-20010904/DTD/svg10.dtd">
<svg version="1.0" xmlns="http://www.w3.org/2000/svg"
 width="300.000000pt" height="300.000000pt" viewBox="0 0 300.000000 300.000000"
 preserveAspectRatio="xMidYMid meet">

<g transform="translate(0.000000,300.000000) scale(0.100000,-0.100000)"
fill="#000000" stroke="none">
<path d="M725 2945 c-157 -77 -413 -255 -637 -443 l-88 -74 0 -54 0 -55 88 78
c183 164 452 365 587 438 105 58 289 131 373 149 l67 14 -140 1 -140 1 -110
-55z"/>
<path d="M1765 2980 c39 -10 109 -33 157 -50 271 -99 562 -313 689 -507 50
-77 59 -99 37 -90 -7 2 -39 12 -70 21 -53 15 -60 21 -111 94 -55 77 -93 119
-102 111 -2 -3 14 -29 36 -59 77 -103 156 -292 194 -463 20 -88 32 -317 18
-317 -6 0 -48 15 -94 34 l-84 33 -17 94 c-25 146 -92 339 -117 339 -5 0 3 -28
16 -62 26 -63 56 -197 68 -300 6 -52 5 -58 -12 -58 -15 0 -23 20 -44 108 -29
121 -88 261 -145 347 -22 32 -53 85 -71 118 -43 82 -55 90 -38 27 8 -30 17
-84 21 -121 l6 -67 -43 5 c-50 7 -55 12 -63 62 -3 20 -12 45 -20 56 -14 18
-15 14 -16 -51 0 -158 -52 -334 -125 -430 -24 -31 -25 -31 -140 -38 -64 -4
-119 -6 -121 -4 -2 3 3 42 11 89 24 132 29 291 15 424 -7 66 -16 126 -20 133
-4 8 -6 -78 -6 -190 0 -146 -5 -240 -18 -335 -18 -129 -19 -132 -45 -137 -153
-28 -162 -29 -178 -14 -8 9 -34 69 -58 134 -41 113 -43 117 -50 84 -3 -19 -3
-84 2 -143 5 -59 7 -110 4 -113 -2 -2 -14 -4 -26 -4 -18 0 -25 9 -34 44 -15
60 -44 296 -38 303 3 3 28 7 54 10 79 7 93 12 93 32 0 26 -73 55 -119 46 l-34
-6 7 73 c4 40 16 113 27 161 12 49 19 90 16 93 -7 7 -77 -172 -77 -196 0 -11
-16 -40 -35 -66 -80 -104 -160 -267 -226 -456 -19 -54 -37 -98 -41 -98 -7 0
-14 220 -9 278 4 44 -21 21 -54 -50 -34 -77 -85 -221 -85 -244 0 -7 -12 -17
-28 -20 -15 -4 -44 -15 -64 -25 -21 -11 -40 -19 -44 -19 -8 0 3 90 27 219 14
69 26 109 39 120 17 15 200 462 200 488 0 17 137 154 178 178 17 11 32 23 32
28 0 18 -86 -42 -168 -118 l-88 -81 -199 -59 c-110 -32 -206 -63 -213 -68 -18
-14 -16 -17 95 -173 55 -77 102 -144 106 -151 4 -6 2 -35 -5 -63 l-12 -53
-141 7 c-77 4 -157 10 -178 13 -36 5 -38 7 -32 37 16 77 102 312 156 426 57
122 58 124 24 86 -49 -55 -129 -225 -177 -374 -22 -70 -47 -142 -56 -161 -9
-18 -16 -51 -16 -72 2 -46 -6 -48 -52 -13 l-34 26 0 -24 c0 -17 13 -35 39 -56
37 -30 38 -33 34 -79 -7 -75 -9 -78 -38 -59 -31 20 -35 20 -35 -3 0 -12 12
-25 30 -33 21 -9 30 -20 30 -36 0 -22 -1 -22 -30 -7 l-30 16 0 -35 c0 -28 5
-36 30 -46 28 -12 30 -16 30 -69 0 -71 26 -304 41 -368 6 -26 20 -75 30 -109
11 -33 19 -67 19 -75 1 -22 91 -217 134 -289 140 -232 315 -365 518 -393 46
-7 57 7 30 36 -29 33 -123 170 -118 174 2 2 24 -5 49 -16 26 -11 49 -17 51
-12 3 4 -20 50 -49 102 -47 80 -145 287 -145 305 0 3 28 -19 63 -50 66 -60 81
-66 92 -38 5 12 -4 25 -31 47 -76 60 -157 141 -174 175 -42 82 -86 415 -74
559 l7 83 61 28 c33 15 73 32 87 37 21 9 31 28 59 119 l34 109 8 -94 c5 -52
10 -97 12 -99 7 -6 86 21 86 30 0 18 73 206 112 286 35 74 44 86 81 102 l42
19 3 -27 c6 -59 33 -219 44 -252 23 -74 39 -100 65 -100 45 0 63 17 63 60 0
21 5 42 10 45 6 3 10 0 10 -8 0 -8 10 -27 22 -42 24 -30 28 -30 163 -1 39 8
138 22 220 31 135 15 153 19 177 42 45 43 96 153 112 239 l14 79 1 -90 c0 -49
-4 -124 -9 -165 -4 -41 -7 -77 -5 -80 2 -3 21 -4 43 -2 40 4 40 5 70 80 17 43
36 112 42 155 l13 78 30 -7 c33 -7 32 -4 -11 53 -14 19 -22 42 -20 55 3 18 12
7 42 -52 50 -97 83 -184 111 -294 l23 -89 63 -22 c35 -13 90 -34 122 -49 49
-22 57 -29 57 -53 0 -44 -32 -193 -41 -193 -5 0 -9 5 -9 10 0 20 -105 110
-147 126 -31 12 -42 21 -39 33 16 53 16 68 2 80 -30 25 -59 9 -80 -46 -18 -45
-25 -52 -54 -58 -93 -17 -175 -76 -223 -159 -46 -82 -36 -91 29 -27 66 67 124
91 216 91 106 -1 167 -42 226 -155 30 -57 32 -64 26 -137 -4 -43 -9 -85 -13
-95 -6 -16 -5 -16 10 -4 15 12 17 10 17 -21 0 -52 -20 -149 -37 -183 -9 -16
-31 -48 -50 -70 -41 -48 -29 -56 26 -19 53 34 77 99 95 248 11 96 17 118 46
164 l33 52 -18 60 c-17 56 -17 64 -1 142 9 46 16 99 16 119 0 35 2 37 32 35
26 -1 33 3 38 24 6 25 7 25 90 22 47 -2 90 -8 95 -13 14 -14 11 -373 -3 -479
-7 -47 -27 -145 -44 -218 l-31 -133 -43 -20 c-23 -11 -45 -27 -48 -35 -9 -23
-71 -17 -112 11 -20 14 -43 25 -51 25 -23 0 -77 -26 -92 -43 -20 -25 -102 -23
-126 3 -42 46 -109 47 -174 1 -17 -12 -61 -24 -120 -33 l-93 -13 -75 -200
c-41 -110 -103 -275 -139 -367 -35 -91 -64 -171 -64 -177 0 -6 11 -11 23 -11
21 0 27 10 52 93 15 50 69 207 120 347 51 140 94 264 96 275 6 28 36 33 206
34 152 1 153 1 159 -23 3 -13 4 -38 2 -57 l-3 -34 -132 -10 c-73 -5 -136 -14
-141 -20 -11 -12 -152 -426 -181 -532 l-19 -73 164 0 c152 0 164 1 164 18 0
10 -20 128 -44 263 -24 134 -46 258 -48 274 l-3 30 70 3 c56 2 68 1 58 -9 -21
-21 -15 -58 11 -70 30 -14 88 12 119 53 20 27 23 28 106 27 47 -1 78 -3 69 -6
-20 -5 -31 -33 -23 -56 17 -42 95 -21 141 37 27 34 32 36 89 36 46 0 56 -3 47
-12 -19 -19 -14 -46 12 -63 29 -20 67 -7 113 37 l32 31 5 -34 c3 -19 20 -115
37 -214 17 -99 37 -215 43 -257 7 -43 16 -81 19 -85 4 -3 7 74 7 173 0 170
-11 277 -40 382 -6 22 -15 78 -21 123 -11 89 -24 122 -62 157 l-24 23 28 117
c37 150 57 392 54 622 l-3 175 34 37 c33 37 34 41 34 121 l-1 82 -22 -35 c-12
-19 -40 -59 -62 -88 l-40 -53 -8 38 c-55 266 -153 483 -294 651 -25 28 -42 52
-39 52 6 0 332 -187 416 -239 19 -11 38 -21 43 -21 4 0 7 20 7 44 l0 44 -132
75 c-73 41 -191 106 -261 146 -70 39 -176 104 -235 145 -137 93 -249 158 -342
196 -69 28 -80 30 -204 29 l-131 0 70 -19z m-1110 -786 c-42 -104 -80 -193
-84 -197 -8 -8 -193 241 -207 276 -4 12 5 19 33 26 21 6 103 30 183 54 80 23
146 40 148 36 1 -3 -31 -91 -73 -195z m1938 120 c26 -9 47 -19 47 -22 0 -4
-13 -22 -29 -41 l-28 -34 -17 44 c-10 24 -20 50 -23 57 -6 15 -6 15 50 -4z
m165 -199 c17 -49 34 -109 38 -132 l7 -43 -72 0 c-49 0 -73 4 -75 13 -2 6 -15
61 -30 120 l-26 108 42 55 42 56 22 -44 c12 -23 35 -83 52 -133z m-1668 56 c0
-19 -26 -48 -36 -39 -7 7 17 58 28 58 4 0 8 -8 8 -19z m1004 -30 c10 -15 -14
-159 -37 -234 -26 -82 -52 -105 -40 -35 4 23 7 96 8 160 l0 118 32 0 c17 0 34
-4 37 -9z m730 -287 c3 -9 6 -32 6 -51 l0 -36 -61 7 c-34 3 -70 6 -80 6 -16 0
-19 8 -19 45 l0 45 74 0 c58 0 75 -3 80 -16z m-2410 -61 l78 -6 -6 -35 c-3
-19 -7 -36 -9 -38 -2 -3 -84 -7 -182 -11 l-178 -6 6 39 c4 21 7 48 7 58 0 20
20 20 284 -1z m51 -405 c0 -213 3 -257 23 -356 30 -149 68 -255 161 -444 67
-138 73 -155 51 -143 -64 33 -119 96 -168 193 -77 149 -151 389 -152 492 -1
30 -2 32 -11 17 -26 -45 61 -376 134 -511 33 -61 119 -200 204 -330 l45 -69
-29 7 c-74 19 -160 73 -234 146 -169 170 -280 400 -345 715 -23 113 -27 155
-28 320 l-1 190 95 6 c52 3 131 6 175 7 l80 2 0 -242z m2356 -607 c16 -16 29
-40 29 -53 0 -21 -4 -19 -36 20 -24 28 -44 42 -60 42 -14 0 -22 4 -19 10 12
20 57 10 86 -19z m-604 13 c-3 -3 -12 -4 -19 -1 -8 3 -5 6 6 6 11 1 17 -2 13
-5z m351 -46 c7 -7 12 -33 12 -59 l0 -46 -52 -7 c-29 -3 -83 -6 -120 -6 l-68
0 0 44 c0 24 -3 51 -6 60 -5 12 5 16 53 19 129 8 169 7 181 -5z m237 -49 c19
-27 35 -51 35 -54 0 -3 -47 -5 -104 -5 l-104 0 -4 53 c-3 28 -3 54 -2 57 1 3
34 4 73 2 l70 -4 36 -49z"/>
<path d="M968 1630 c-9 -6 -24 -32 -33 -59 -15 -47 -17 -49 -63 -55 -66 -9
-163 -57 -211 -105 -49 -49 -116 -178 -125 -242 -7 -46 -7 -46 47 -95 50 -45
138 -104 179 -120 15 -5 13 6 -13 67 -28 69 -29 77 -18 124 29 126 115 221
231 256 122 37 224 14 321 -71 25 -22 48 -40 51 -40 11 0 -16 58 -44 92 -53
64 -110 95 -267 143 -9 3 -10 12 -1 35 7 23 7 38 -1 56 -11 26 -26 29 -53 14z"/>
<path d="M2073 1409 c-77 -38 -146 -142 -159 -241 -7 -52 12 -148 30 -148 6 0
28 14 48 30 36 30 40 31 109 26 70 -5 92 -16 83 -41 -7 -17 54 -57 76 -50 30
9 72 106 77 179 6 66 -9 149 -34 199 -33 66 -145 89 -230 46z m135 -49 c31
-29 29 -73 -4 -99 -15 -12 -34 -21 -44 -21 -29 0 -70 39 -70 66 0 32 42 74 73
74 13 0 33 -9 45 -20z m40 -294 c5 -23 -18 -39 -35 -24 -7 6 -13 19 -13 30 0
26 43 21 48 -6z"/>
<path d="M2630 1318 c-1 -56 -46 -279 -74 -361 -29 -86 -31 -97 -16 -97 14 0
27 36 61 169 28 108 51 321 36 321 -4 0 -7 -15 -7 -32z"/>
<path d="M1040 1321 c-70 -14 -152 -102 -166 -178 -19 -100 23 -230 85 -266
l32 -20 32 36 c18 19 32 39 30 43 -6 20 17 35 80 50 65 16 68 16 89 -2 21 -19
21 -19 16 3 -3 12 0 30 7 40 13 17 14 17 35 -2 12 -10 19 -27 17 -36 -5 -17
28 -39 58 -39 24 0 38 75 24 134 -16 71 -67 163 -105 193 -60 45 -145 61 -234
44z m140 -71 c37 -37 22 -98 -30 -125 -27 -14 -32 -14 -55 1 -15 9 -33 30 -41
47 -15 27 -14 32 3 56 32 42 92 52 123 21z"/>
<path d="M1555 828 c-54 -29 -61 -83 -15 -121 43 -36 64 -41 118 -23 26 9 78
19 117 23 57 7 70 11 73 27 4 17 0 18 -38 12 -39 -6 -45 -4 -82 30 -64 58
-128 77 -173 52z m116 -44 c37 -18 55 -42 38 -48 -60 -19 -119 -27 -136 -17
-30 16 -44 37 -37 56 14 35 75 40 135 9z"/>
<path d="M845 699 c-46 -41 -65 -78 -65 -127 0 -36 7 -46 78 -114 42 -40 150
-129 240 -197 89 -68 162 -128 162 -132 0 -4 -9 -28 -20 -54 -24 -55 -25 -75
-6 -75 8 0 18 14 21 32 21 95 115 214 200 255 60 28 116 24 183 -13 30 -16 44
-20 47 -11 3 7 27 72 55 146 27 73 50 134 50 135 0 1 -39 -3 -87 -9 l-88 -11
3 -84 c2 -79 5 -87 30 -107 32 -27 28 -28 -28 -8 -23 8 -67 15 -97 15 -53 0
-55 1 -161 88 -130 107 -200 160 -316 240 -108 75 -144 81 -201 31z m168 -50
l77 -52 -45 -28 c-45 -28 -85 -89 -85 -129 0 -11 -3 -20 -6 -20 -14 0 -94 74
-119 110 l-27 39 22 45 c19 41 69 85 96 86 6 0 45 -23 87 -51z m211 -153 c44
-35 109 -89 143 -119 l63 -56 -31 -22 -31 -21 -31 29 c-18 17 -74 63 -126 102
-115 88 -151 118 -151 126 0 8 41 24 64 24 10 1 55 -28 100 -63z m-50 -130
c80 -66 146 -124 146 -130 -1 -6 -10 -22 -21 -35 l-20 -24 -42 32 c-23 17 -88
64 -144 104 -73 52 -102 78 -103 93 0 29 20 86 30 82 4 -2 74 -57 154 -122z"/>
<path d="M1946 688 c20 -35 47 -69 51 -65 6 7 -40 77 -50 77 -5 0 -5 -6 -1
-12z"/>
<path d="M1330 500 c25 -21 48 -39 53 -40 4 0 7 14 7 30 0 33 -26 50 -78 50
-26 0 -26 -1 18 -40z"/>
<path d="M890 330 c0 -51 20 -91 62 -123 l32 -25 -26 -34 c-23 -31 -78 -131
-78 -143 0 -3 66 -5 148 -5 l147 0 21 60 21 59 -21 19 c-12 11 -73 58 -137
105 -63 47 -123 95 -134 107 -27 30 -35 25 -35 -20z"/>
<path d="M1565 176 c-49 -23 -99 -66 -77 -66 6 0 26 9 45 20 19 12 54 24 78
28 30 5 45 13 47 25 5 24 -32 22 -93 -7z"/>
</g>
</svg>
